# xmcd
#
# Track frame offsets:
#	150
#	11923
#	24399
#	40032
#	54050
#	64211
#	78028
#	91741
#	101198
#	115418
#	126964
#	139702
#	156998
#	174309
#	185779
#	195750
#	209293
#	221860
#	237959
#	248534
#	262859
#	275483
#	285029
#	296104
#
# Disc length: 4167 seconds
#
# Revision: 1
# Processed by: cddbd v1.5.2PL0 Copyright (c) Steve Scherf et al.
# Submitted via: audiograbber 1.83.01
#
DISCID=4d104518
DTITLE=The Greatest Country Music Recordings Of All Time - Record 55 and 56
DYEAR=1900
DGENRE=
TTITLE0=Lovin' Spoonful - Nashville Cats
TTITLE1=Linda Ronstadt - I Can't Help It (If I'm Still In Love With You)
TTITLE2=Mac Davis - Rock 'N' Roll (I Gave You All The Best Years Of My Life)
TTITLE3=Jo Stafford with Paul Weston and his Orchestra - You Belong To Me
TTITLE4=Jimmie Rodgers - Honeycomb
TTITLE5=Joan Baez - Long Black Veil
TTITLE6=Patty Page - Tennessee Waltz
TTITLE7=Burl Ives - Little Bitty Tear
TTITLE8=Hoyt Axton - Boney Fingers
TTITLE9=Emmylou Harris - If I Could Only Win Your Love
TTITLE10=Jud Strunk - A Daisy A Day
TTITLE11=Mary MacGregor - Torn Between Two Lovers
TTITLE12=Emmylou Harris - Together Again
TTITLE13=Billy "Crash" Craddock - Rub It In
TTITLE14=New Riders Of The Purple Sage - Ashes Of Love
TTITLE15=Joan Baez - Help Me Make It Through The Night
TTITLE16=The Byrds - Life In Prison
TTITLE17=Ian and Sylvia - Satisfied Mind
TTITLE18=Linda Ronstadt - Silver Threads And Golden Needles
TTITLE19=Gram Parsons - Six Days On The Road
TTITLE20=Dr. Hook - Only Sixteen
TTITLE21=Linda Ronstadt - When Will I Be Loved
TTITLE22=New Riders Of The Purple Sage - I Don't Know You
TTITLE23=Joan Baez - Seven Bridges Road
EXTD=
EXTT0=
EXTT1=
EXTT2=
EXTT3=
EXTT4=
EXTT5=
EXTT6=
EXTT7=
EXTT8=
EXTT9=
EXTT10=
EXTT11=
EXTT12=
EXTT13=
EXTT14=
EXTT15=
EXTT16=
EXTT17=
EXTT18=
EXTT19=
EXTT20=
EXTT21=
EXTT22=
EXTT23=
PLAYORDER=
